<svg width="16" height="16" viewBox="0 0 16 16" fill="none" xmlns="http://www.w3.org/2000/svg">
<g id="Marker 1">
<g id="Group">
<g id="Group_2">
<g id="Group_3">
<path id="Vector" d="M8.00005 15.2683C7.82444 15.2097 6.64396 13.6195 5.38542 11.4634C4.51713 9.96096 3.05371 7.21949 3.05371 5.67803C3.05371 2.94632 5.26835 0.731689 8.00005 0.731689C10.7318 0.731689 12.9464 2.94632 12.9464 5.67803C12.9464 7.21949 11.483 9.96096 10.6147 11.4634C9.35615 13.6195 8.17566 15.2097 8.00005 15.2683Z" fill="url(#paint0_linear_92_387)"/>
<path id="Vector_2" d="M8 0.780483C10.7024 0.780483 12.8976 2.97561 12.8976 5.67804C12.8976 7.2 11.4634 9.90243 10.6049 11.3854C9.41464 13.4341 8.24391 15.0439 8 15.2195C7.7561 15.0439 6.58537 13.4439 5.39513 11.3854C4.53659 9.90243 3.10244 7.2 3.10244 5.67804C3.10244 2.97561 5.29757 0.780483 8 0.780483ZM8 0.682922C5.23903 0.682922 3.00488 2.91707 3.00488 5.67804C3.00488 8.43902 7.64879 15.3171 8 15.3171C8.35122 15.3171 12.9951 8.43902 12.9951 5.67804C12.9951 2.91707 10.761 0.682922 8 0.682922Z" fill="white"/>
</g>
<g id="Group_4">
<path id="Vector_3" d="M8.00025 9.90248C10.3441 9.90248 12.2442 8.00242 12.2442 5.65858C12.2442 3.31473 10.3441 1.41467 8.00025 1.41467C5.65641 1.41467 3.75635 3.31473 3.75635 5.65858C3.75635 8.00242 5.65641 9.90248 8.00025 9.90248Z" fill="url(#paint1_linear_92_387)"/>
<path id="Vector_4" d="M8.0002 1.46341C10.3124 1.46341 12.1953 3.34633 12.1953 5.65853C12.1953 7.97072 10.3124 9.85365 8.0002 9.85365C5.68801 9.85365 3.80508 7.97072 3.80508 5.65853C3.80508 3.34633 5.68801 1.46341 8.0002 1.46341ZM8.0002 1.36584C5.62947 1.36584 3.70752 3.2878 3.70752 5.65853C3.70752 8.02926 5.62947 9.95121 8.0002 9.95121C10.3709 9.95121 12.2929 8.02926 12.2929 5.65853C12.2929 3.2878 10.3709 1.36584 8.0002 1.36584Z" fill="white"/>
</g>
</g>
<g id="Group_5">
<path id="Vector_5" d="M10.1396 3.09072C10.0703 3.13267 9.76885 3.38926 8.94446 4.10341C8.33861 4.63024 7.83226 5.06926 7.82153 5.07999C7.80104 5.0995 7.80202 5.10243 7.86056 5.25657L7.92104 5.41365L7.65958 5.95901C7.51617 6.2595 7.38836 6.52487 7.37568 6.55121L7.35324 6.59609L7.31226 6.5756C7.18641 6.51219 6.9708 6.50341 6.81178 6.55706C6.47519 6.67024 6.24885 6.99609 6.29568 7.30243C6.31812 7.4478 6.39031 7.57072 6.50251 7.65657C6.59324 7.72682 6.61568 7.78243 6.6147 7.93658C6.6147 8.02341 6.60787 8.07901 6.59031 8.14536C6.57763 8.19609 6.56885 8.24682 6.57178 8.26048C6.58348 8.30438 6.69275 8.3795 6.71422 8.35804C6.71714 8.35511 6.73861 8.28584 6.763 8.20487C6.84007 7.93462 6.9269 7.79609 7.03422 7.76877C7.12982 7.74535 7.21178 7.71024 7.2869 7.66438C7.5669 7.4917 7.70543 7.16682 7.61275 6.90341L7.59129 6.84292L7.94446 6.0917L8.29665 5.34048L9.25275 4.2117C9.77958 3.58926 10.2196 3.07023 10.2313 3.05657C10.2625 3.02243 10.243 3.02926 10.1396 3.09072ZM8.19422 5.0995C8.21568 5.12097 8.22543 5.14145 8.22543 5.16487C8.22543 5.20975 8.1747 5.26145 8.1308 5.26145C8.06056 5.26145 8.0147 5.18633 8.0469 5.12292C8.08007 5.0595 8.14348 5.04877 8.19422 5.0995ZM7.15031 6.72096C7.41178 6.7756 7.52592 7.03023 7.40104 7.28194C7.35324 7.3795 7.24495 7.48585 7.14251 7.53365C6.89178 7.65268 6.62934 7.59316 6.51714 7.38926C6.48787 7.33853 6.48592 7.32585 6.48592 7.22048C6.48592 7.11219 6.4869 7.10438 6.52592 7.02536C6.60007 6.87706 6.75617 6.75706 6.92495 6.72096C7.01275 6.70145 7.06348 6.70145 7.15031 6.72096Z" fill="white"/>
<path id="Vector_6" d="M9.93362 4.13654L9.14923 4.49654L8.79606 4.9141C8.60094 5.14435 8.44387 5.33361 8.44582 5.33654C8.44777 5.33849 8.94533 5.02142 9.55118 4.63118L10.6526 3.92191L10.6926 3.85751C10.7336 3.79215 10.7385 3.77752 10.7258 3.77752C10.72 3.77752 10.3639 3.93947 9.93362 4.13654Z" fill="white"/>
<path id="Vector_7" d="M7.01482 5.16196L6.36994 5.26245L6.33092 5.23123C6.20409 5.13075 6.00507 5.09562 5.81677 5.13855C5.57677 5.19318 5.34946 5.40196 5.27141 5.64001C5.15726 5.9844 5.32214 6.31123 5.65287 6.39806C5.77385 6.42928 5.95531 6.41172 6.08312 6.35709C6.11824 6.34245 6.12214 6.34245 6.15141 6.36684C6.17482 6.38733 6.19433 6.39221 6.23921 6.39221C6.28897 6.39221 6.30263 6.38635 6.3358 6.35903C6.38751 6.31416 6.40214 6.25757 6.38165 6.19416L6.36507 6.14635L6.40214 6.09855C6.4519 6.03611 6.50848 5.91709 6.52799 5.83123C6.54751 5.75123 6.54946 5.62148 6.53385 5.55221C6.52799 5.52684 6.52604 5.50245 6.52994 5.49953C6.53287 5.4966 6.8158 5.47025 7.16116 5.44294C7.50458 5.41464 7.78751 5.39123 7.78848 5.38928C7.79238 5.38538 7.67238 5.06928 7.66458 5.0644C7.66165 5.06343 7.36994 5.10635 7.01482 5.16196ZM6.14848 5.33952C6.22751 5.37464 6.29287 5.44196 6.32799 5.51806C6.36702 5.60294 6.36799 5.75318 6.32994 5.84879C6.27629 5.9883 6.17092 6.10343 6.03726 6.17172C5.70653 6.33757 5.37482 6.12977 5.42555 5.7883C5.45775 5.57952 5.60994 5.40392 5.8236 5.32879C5.92409 5.29465 6.06263 5.29855 6.14848 5.33952Z" fill="white"/>
</g>
</g>
</g>
<defs>
<linearGradient id="paint0_linear_92_387" x1="12.9464" y1="0.731689" x2="3.05371" y2="0.731689" gradientUnits="userSpaceOnUse">
<stop/>
<stop offset="0.528892" stop-color="#020202"/>
<stop offset="0.7738" stop-color="#020202"/>
<stop offset="1" stop-color="#010101"/>
</linearGradient>
<linearGradient id="paint1_linear_92_387" x1="12.2442" y1="1.41467" x2="3.75635" y2="1.41467" gradientUnits="userSpaceOnUse">
<stop/>
<stop offset="0.528892" stop-color="#020202"/>
<stop offset="0.7738" stop-color="#020202"/>
<stop offset="1" stop-color="#010101"/>
</linearGradient>
</defs>
</svg>
