<svg width="12" height="12" viewBox="0 0 12 12" fill="none" xmlns="http://www.w3.org/2000/svg">
<g clip-path="url(#clip0_92_384)">
<path d="M11.0002 8.45999V9.95999C11.0008 10.0992 10.9723 10.2371 10.9165 10.3647C10.8607 10.4923 10.7789 10.6068 10.6762 10.7009C10.5736 10.7951 10.4525 10.8667 10.3206 10.9113C10.1887 10.956 10.0489 10.9725 9.91021 10.96C8.37163 10.7928 6.89371 10.2671 5.59521 9.42499C4.38712 8.65732 3.36288 7.63307 2.59521 6.42499C1.7502 5.12059 1.22433 3.63548 1.06021 2.08999C1.04772 1.95172 1.06415 1.81237 1.10846 1.6808C1.15277 1.54923 1.224 1.42833 1.31759 1.3258C1.41119 1.22326 1.52511 1.14134 1.65211 1.08525C1.7791 1.02915 1.91638 1.00012 2.05521 0.999987H3.55521C3.79786 0.997599 4.03311 1.08353 4.21709 1.24175C4.40108 1.39998 4.52125 1.61971 4.55521 1.85999C4.61852 2.34002 4.73594 2.81135 4.90521 3.26499C4.97248 3.44395 4.98704 3.63844 4.94716 3.82543C4.90729 4.01241 4.81464 4.18404 4.68021 4.31999L4.04521 4.95499C4.75699 6.20676 5.79344 7.24321 7.04521 7.95499L7.68021 7.31999C7.81616 7.18556 7.98779 7.09291 8.17477 7.05303C8.36175 7.01316 8.55625 7.02772 8.73521 7.09499C9.18885 7.26426 9.66018 7.38168 10.1402 7.44499C10.3831 7.47925 10.6049 7.60159 10.7635 7.78873C10.922 7.97588 11.0063 8.21478 11.0002 8.45999Z" stroke="white" stroke-linecap="round" stroke-linejoin="round"/>
<path d="M7.0249 1C8.04403 1.10738 8.99599 1.5594 9.72333 2.28129C10.4507 3.00318 10.9098 3.95171 11.0249 4.97" stroke="white" stroke-linecap="round" stroke-linejoin="round"/>
<path d="M7.0249 3C7.51666 3.09697 7.96791 3.33951 8.32009 3.69615C8.67228 4.0528 8.90913 4.50706 8.9999 5" stroke="white" stroke-linecap="round" stroke-linejoin="round"/>
</g>
<defs>
<clipPath id="clip0_92_384">
<rect width="12" height="12" fill="white"/>
</clipPath>
</defs>
</svg>
